<svg width="36" height="33" viewBox="0 0 36 33" fill="none" xmlns="http://www.w3.org/2000/svg">
<path d="M18.0036 9.65157C19.5447 9.65157 21.2979 10.9983 21.2979 12.8596C21.2979 13.9078 20.9658 14.7175 20.4779 15.4569C20.189 15.8887 19.9703 16.3642 19.83 16.8654C19.7235 17.3088 19.4894 18.3828 20.7947 18.4008C21.6461 18.4222 23.7288 17.6785 25.4146 15.6311C26.7596 13.9237 27.4886 11.8064 27.4819 9.6267C27.4819 4.30855 23.2443 0 18.0053 0C12.7664 0 8.52019 4.31113 8.52019 9.6267C8.51318 11.8065 9.24219 13.9238 10.5875 15.6311C12.2759 17.6785 14.3603 18.4222 15.2075 18.4008C16.511 18.3828 16.2743 17.3088 16.1739 16.8654C16.034 16.3639 15.814 15.8888 15.5225 15.4586C15.0363 14.7192 14.7034 13.9095 14.7034 12.8613C14.7034 11 16.4574 9.65329 18.0053 9.65329" fill="#0572E6"/>
<path d="M34.7669 19.3811C34.3787 19.0569 33.6967 18.5843 32.2977 18.3673C30.3573 18.0748 28.6246 18.5328 27.5816 18.9506C26.2099 19.4969 24.5163 20.7398 23.3541 22.3585C22.1229 24.0697 21.486 26.6473 22.0965 29.3432C22.2243 29.9437 22.4395 30.5218 22.7351 31.0588C23.0995 31.7801 24.0608 32.788 24.9021 32.9699C25.567 33.108 26.0864 32.7228 26.3419 32.432C28.0362 30.454 34.4613 22.7916 35.1577 21.8129C35.8389 20.8402 35.3953 19.9061 34.7669 19.3803" fill="#0572E6"/>
<path d="M8.42059 18.9506C7.37757 18.5328 5.64658 18.0748 3.70528 18.3673C2.30635 18.5843 1.61923 19.0535 1.23608 19.3811C0.607708 19.907 0.157292 20.8394 0.845262 21.8138C1.53323 22.7882 7.96166 30.454 9.6569 32.4329C9.91233 32.7237 10.4317 33.1097 11.0975 32.9707C11.9439 32.7889 12.9018 31.781 13.2645 31.0588C13.5613 30.5218 13.7782 29.9438 13.9082 29.3432C14.517 26.6516 13.8707 24.0688 12.6506 22.3585C11.4858 20.7398 9.79142 19.4969 8.42059 18.9506" fill="#0572E6"/>
</svg>
