<?xml version="1.0" standalone="no"?>
<!DOCTYPE svg PUBLIC "-//W3C//DTD SVG 20010904//EN"
 "http://www.w3.org/TR/2001/REC-SVG-20010904/DTD/svg10.dtd">
<svg version="1.0" xmlns="http://www.w3.org/2000/svg"
 width="1762.000000pt" height="337.000000pt" viewBox="0 0 1762.000000 337.000000"
 preserveAspectRatio="xMidYMid meet">

<g transform="translate(0.000000,337.000000) scale(0.100000,-0.100000)"
fill="#000000" stroke="none">
<path d="M1667 3341 c-102 -37 -154 -75 -191 -142 l-31 -54 -5 -880 -5 -880
-22 -46 c-42 -83 -133 -178 -233 -241 -116 -73 -232 -104 -355 -95 -215 15
-406 148 -515 358 -57 109 -80 208 -80 339 0 209 68 379 204 515 125 124 242
175 403 175 143 0 271 -49 393 -151 38 -32 71 -55 74 -51 2 4 5 44 7 89 3 76
1 84 -21 109 -68 73 -242 165 -360 190 -92 20 -268 14 -350 -11 -294 -91 -505
-349 -565 -691 -73 -422 134 -842 499 -1009 197 -90 426 -86 624 11 94 46 206
136 268 214 l49 63 3 -167 2 -166 100 0 100 0 2 1092 c3 1056 4 1094 22 1132
23 45 96 96 138 96 15 0 28 4 28 9 0 10 -98 221 -102 220 -2 0 -38 -13 -81
-28z"/>
<path d="M5662 2182 l3 -1147 33 -67 c65 -133 193 -186 386 -158 l86 12 0 94
0 93 -78 -1 c-83 -1 -119 11 -159 54 -55 59 -53 6 -53 1183 l0 1085 -110 0
-110 0 2 -1148z"/>
<path d="M16860 2870 l0 -280 -307 0 -308 -1 90 -84 90 -84 222 -1 222 0 3
-677 3 -678 28 -57 c34 -69 140 -172 194 -189 59 -18 216 -23 286 -9 34 6 97
23 140 36 l77 25 0 89 c0 50 -2 90 -5 90 -3 0 -23 -9 -45 -20 -93 -47 -227
-62 -320 -34 -68 20 -110 62 -138 137 -22 57 -22 67 -22 672 l0 615 235 0 235
0 0 85 0 85 -235 0 -235 0 0 280 0 280 -105 0 -105 0 0 -280z"/>
<path d="M11839 3016 c-117 -34 -212 -114 -266 -224 -25 -52 -28 -67 -28 -162
l1 -105 145 -325 c80 -179 152 -341 159 -361 12 -35 9 -46 -141 -422 -84 -213
-154 -386 -155 -384 -1 1 -102 250 -223 552 -122 303 -263 652 -314 778 l-91
227 -104 0 c-79 0 -103 -3 -99 -12 20 -50 604 -1477 657 -1608 l67 -165 89 -3
89 -3 169 426 c94 235 173 428 176 430 6 4 325 -787 338 -837 4 -16 15 -18 96
-18 l91 0 117 288 c64 158 226 553 359 877 132 325 244 598 246 608 5 16 -3
18 -98 15 l-103 -3 -309 -772 c-171 -425 -313 -773 -316 -773 -3 0 -74 174
-158 385 l-152 385 41 93 c22 50 94 213 160 361 103 232 120 279 125 337 14
170 -100 344 -267 405 -60 22 -239 28 -301 10z m266 -194 c63 -35 110 -96 126
-166 l12 -54 -128 -314 c-70 -172 -130 -319 -133 -326 -2 -8 -63 130 -133 304
-138 341 -144 365 -110 439 45 96 126 145 241 145 63 0 83 -5 125 -28z"/>
<path d="M2049 2991 c-40 -31 -54 -74 -41 -120 15 -49 41 -71 90 -78 83 -11
146 60 123 137 -15 51 -42 72 -98 77 -38 4 -54 1 -74 -16z"/>
<path d="M3848 1513 c-3 -1089 -4 -1129 -22 -1167 -24 -47 -84 -92 -136 -101
l-39 -7 55 -109 c61 -123 47 -116 151 -77 91 33 144 76 178 142 l30 60 5 870
5 871 27 58 c43 91 162 202 279 260 52 25 114 51 139 56 67 15 208 13 274 -4
222 -58 414 -266 472 -513 25 -105 15 -303 -20 -407 -72 -214 -218 -365 -416
-431 -68 -23 -222 -25 -295 -5 -81 23 -204 91 -265 148 -54 50 -58 52 -64 30
-3 -12 -6 -54 -6 -93 0 -71 0 -71 43 -111 59 -54 168 -117 257 -149 101 -36
281 -45 394 -19 375 83 634 471 613 919 -18 393 -257 716 -611 825 -284 87
-604 -24 -808 -282 l-38 -49 0 206 0 206 -100 0 -100 0 -2 -1127z"/>
<path d="M2885 2589 c-253 -37 -433 -174 -490 -373 -26 -90 -18 -244 17 -311
68 -131 186 -190 571 -286 281 -70 377 -108 439 -177 47 -52 62 -100 55 -177
-5 -72 -43 -152 -92 -192 -40 -34 -114 -68 -195 -89 -88 -23 -304 -15 -405 15
-91 27 -236 99 -313 156 -34 25 -64 45 -67 45 -3 0 -5 -51 -5 -114 l0 -114 79
-41 c177 -92 384 -137 590 -128 145 6 213 22 328 78 231 111 342 339 273 562
-56 180 -176 248 -662 371 -293 75 -370 113 -404 202 -22 58 -15 173 14 229
60 116 203 184 387 185 172 0 436 -78 571 -169 l45 -31 -3 106 -3 105 -80 35
c-240 106 -449 142 -650 113z"/>
<path d="M7673 2588 c2 -7 80 -186 172 -398 92 -212 207 -475 255 -585 47
-110 151 -348 230 -529 79 -181 143 -334 143 -340 0 -23 -88 -255 -123 -326
-42 -84 -76 -125 -115 -140 -15 -6 -64 -10 -111 -10 l-84 0 57 -115 58 -115
37 0 c136 0 254 65 336 186 12 17 123 287 247 600 125 313 307 772 405 1019
99 248 206 518 239 600 l59 150 -111 3 c-61 1 -114 -1 -118 -5 -4 -4 -56 -132
-115 -283 -59 -151 -128 -329 -154 -395 -26 -66 -118 -302 -205 -525 -86 -223
-160 -409 -162 -414 -3 -5 -35 61 -70 145 -36 85 -95 226 -132 314 -37 88
-164 388 -281 668 l-213 507 -125 0 c-95 0 -123 -3 -119 -12z"/>
<path d="M9927 2584 c-299 -64 -470 -265 -455 -534 8 -142 76 -239 211 -303
77 -36 265 -96 387 -122 232 -51 392 -115 449 -180 43 -50 51 -74 51 -158 -1
-122 -48 -196 -163 -253 -203 -103 -493 -80 -735 59 -48 27 -103 62 -123 78
-20 16 -40 29 -43 29 -3 0 -6 -52 -6 -115 l0 -115 53 -27 c100 -52 176 -82
284 -110 98 -25 124 -28 283 -28 172 0 176 1 270 33 275 96 411 269 398 508
-8 145 -76 248 -216 322 -81 43 -200 81 -457 147 -368 93 -429 135 -429 295
-1 127 54 214 172 274 119 60 341 62 529 3 122 -38 201 -72 275 -117 26 -17
48 -28 48 -25 0 3 -26 61 -59 128 -34 74 -66 127 -77 131 -78 32 -203 69 -273
81 -105 19 -285 18 -374 -1z"/>
<path d="M13815 2589 c-180 -26 -332 -106 -461 -241 -76 -79 -114 -136 -164
-240 -66 -138 -83 -219 -84 -398 -1 -182 19 -278 84 -417 109 -232 287 -391
520 -465 65 -20 95 -23 220 -23 119 1 159 5 223 23 118 34 287 126 287 156 0
11 -67 156 -75 165 -2 2 -25 -15 -51 -38 -26 -23 -79 -57 -118 -76 -189 -93
-392 -81 -567 33 -107 70 -183 160 -239 285 -51 114 -64 187 -64 352 1 172 18
254 80 384 49 101 168 222 267 270 302 145 638 21 791 -291 26 -52 53 -125 61
-166 26 -126 77 -112 -405 -112 l-420 0 0 -85 0 -85 524 0 525 0 -4 53 c-3 28
-7 90 -9 137 -12 210 -113 418 -275 572 -91 86 -163 131 -272 169 -121 43
-248 56 -374 38z"/>
<path d="M15605 2589 c-265 -37 -494 -209 -620 -464 -72 -147 -90 -231 -90
-425 0 -180 13 -246 75 -391 98 -230 292 -406 530 -481 64 -20 95 -23 220 -23
110 1 161 5 210 19 77 22 233 96 274 130 l30 25 -38 85 c-21 47 -41 86 -44 86
-2 0 -21 -15 -42 -34 -52 -46 -114 -81 -201 -113 -62 -22 -91 -27 -179 -27
-167 -1 -285 49 -411 175 -63 62 -85 93 -122 170 -59 122 -76 189 -84 325 -13
244 55 458 192 597 179 182 440 227 672 115 106 -51 216 -166 275 -288 42 -86
78 -206 78 -259 0 -21 -3 -21 -420 -21 l-420 0 0 -85 0 -85 523 0 523 0 -3 88
c-5 121 -21 222 -47 300 -111 325 -357 538 -669 581 -88 12 -125 12 -212 0z"/>
<path d="M2010 1710 l0 -880 110 0 110 0 0 880 0 880 -110 0 -110 0 0 -880z"/>
<path d="M6835 2570 c-148 -30 -272 -80 -402 -162 l-62 -39 40 -72 c21 -40 42
-71 47 -70 4 1 39 21 77 44 179 109 332 153 508 148 107 -4 117 -6 188 -41
130 -65 221 -180 251 -318 17 -83 12 -740 -6 -785 -8 -19 -47 -67 -88 -108
-83 -84 -175 -137 -292 -167 -221 -56 -390 -20 -506 107 -64 70 -93 145 -94
243 -1 166 99 275 314 341 98 30 253 30 433 0 70 -11 130 -21 132 -21 3 0 5
31 5 68 l0 69 -52 11 c-314 67 -576 47 -782 -61 -198 -103 -301 -283 -276
-480 23 -184 125 -328 290 -411 104 -52 199 -70 334 -63 232 12 432 99 575
252 l61 66 0 -83 c1 -131 32 -180 134 -209 16 -5 54 -6 83 -2 l54 6 -3 100
c-3 99 -4 101 -28 107 -49 11 -50 23 -50 515 0 525 -3 545 -75 692 -80 163
-215 270 -405 322 -96 27 -275 27 -405 1z"/>
</g>
</svg>
