<svg version="1.1" id="Layer_1" xmlns="http://www.w3.org/2000/svg" xmlns:xlink="http://www.w3.org/1999/xlink" x="0px" y="0px"
	 width="100%" viewBox="0 0 256 256" enable-background="new 0 0 256 256" xml:space="preserve">
<path fill="#010101" opacity="1.000000" stroke="none" 
	d="
M175.000000,257.000000 
	C116.666672,257.000000 58.833340,257.000000 1.000008,257.000000 
	C1.000005,171.666672 1.000005,86.333351 1.000003,1.000019 
	C86.333321,1.000013 171.666641,1.000013 257.000000,1.000006 
	C257.000000,86.333313 257.000000,171.666626 257.000000,256.999969 
	C229.833328,257.000000 202.666672,257.000000 175.000000,257.000000 
M40.872692,190.712601 
	C45.924980,187.672226 48.005211,183.168228 47.930573,177.324387 
	C47.795052,166.713974 47.892128,156.100616 47.892128,145.002701 
	C50.190693,145.002701 51.983353,145.002701 53.776016,145.002701 
	C100.921638,145.002701 148.067261,145.002991 195.212891,145.002502 
	C205.041840,145.002396 214.871475,145.071915 224.699524,144.976685 
	C234.054214,144.886047 240.153214,136.971039 237.878937,128.061035 
	C236.280167,121.797508 230.868530,118.208084 222.891251,118.206947 
	C161.585281,118.198196 100.279312,118.195404 38.973358,118.226791 
	C36.656361,118.227982 34.324383,118.490562 32.025379,118.815346 
	C23.687565,119.993248 21.113396,122.910210 21.088583,131.337631 
	C21.043459,146.664001 21.045584,161.990662 21.083757,177.317047 
	C21.112463,188.842087 28.921274,194.427887 40.872692,190.712601 
M22.926346,77.639191 
	C18.025328,88.523682 23.788733,97.941605 35.466549,97.946587 
	C100.295364,97.974236 165.124207,97.969032 229.953033,97.950554 
	C238.522659,97.948112 244.270950,92.628372 244.378845,84.773170 
	C244.488556,76.785889 238.551605,71.131805 229.823792,71.128517 
	C165.161621,71.104118 100.499420,71.132812 35.837288,71.082626 
	C30.625607,71.078583 26.395493,72.702278 22.926346,77.639191 
z"/>
<path fill="#F9F9F9" opacity="1.000000" stroke="none" 
	d="
M40.509491,190.870361 
	C28.921274,194.427887 21.112463,188.842087 21.083757,177.317047 
	C21.045584,161.990662 21.043459,146.664001 21.088583,131.337631 
	C21.113396,122.910210 23.687565,119.993248 32.025379,118.815346 
	C34.324383,118.490562 36.656361,118.227982 38.973358,118.226791 
	C100.279312,118.195404 161.585281,118.198196 222.891251,118.206947 
	C230.868530,118.208084 236.280167,121.797508 237.878937,128.061035 
	C240.153214,136.971039 234.054214,144.886047 224.699524,144.976685 
	C214.871475,145.071915 205.041840,145.002396 195.212891,145.002502 
	C148.067261,145.002991 100.921638,145.002701 53.776016,145.002701 
	C51.983353,145.002701 50.190693,145.002701 47.892128,145.002701 
	C47.892128,156.100616 47.795052,166.713974 47.930573,177.324387 
	C48.005211,183.168228 45.924980,187.672226 40.509491,190.870361 
z"/>
<path fill="#F9F9F9" opacity="1.000000" stroke="none" 
	d="
M23.119144,77.313568 
	C26.395493,72.702278 30.625607,71.078583 35.837288,71.082626 
	C100.499420,71.132812 165.161621,71.104118 229.823792,71.128517 
	C238.551605,71.131805 244.488556,76.785889 244.378845,84.773170 
	C244.270950,92.628372 238.522659,97.948112 229.953033,97.950554 
	C165.124207,97.969032 100.295364,97.974236 35.466549,97.946587 
	C23.788733,97.941605 18.025328,88.523682 23.119144,77.313568 
z"/>
</svg>